<?xml version="1.0" encoding="utf-8" standalone="no"?>
<!DOCTYPE svg PUBLIC "-//W3C//DTD SVG 1.1//EN"
  "http://www.w3.org/Graphics/SVG/1.1/DTD/svg11.dtd">
<svg xmlns:xlink="http://www.w3.org/1999/xlink" width="432pt" height="432pt" viewBox="0 0 432 432" xmlns="http://www.w3.org/2000/svg" version="1.1">
 <metadata>
  <rdf:RDF xmlns:dc="http://purl.org/dc/elements/1.1/" xmlns:cc="http://creativecommons.org/ns#" xmlns:rdf="http://www.w3.org/1999/02/22-rdf-syntax-ns#">
   <cc:Work>
    <dc:type rdf:resource="http://purl.org/dc/dcmitype/StillImage"/>
    <dc:date>2024-02-14T19:04:17.518286</dc:date>
    <dc:format>image/svg+xml</dc:format>
    <dc:creator>
     <cc:Agent>
      <dc:title>Matplotlib v3.7.2, https://matplotlib.org/</dc:title>
     </cc:Agent>
    </dc:creator>
   </cc:Work>
  </rdf:RDF>
 </metadata>
 <defs>
  <style type="text/css">*{stroke-linejoin: round; stroke-linecap: butt}</style>
 </defs>
 <g id="figure_1">
  <g id="patch_1">
   <path d="M 0 432 
L 432 432 
L 432 0 
L 0 0 
z
" style="fill: #ffffff"/>
  </g>
  <g id="axes_1">
   <g id="LineCollection_1">
    <path d="M 338.93543 114.713901 
L 385.586777 137.859284 
" clip-path="url(#p0e87b97267)" style="fill: none; stroke: #a9a9a9; stroke-opacity: 0.7; stroke-width: 0.666667"/>
    <path d="M 338.93543 114.713901 
L 333.278184 184.152158 
" clip-path="url(#p0e87b97267)" style="fill: none; stroke: #a9a9a9; stroke-opacity: 0.7; stroke-width: 0.666667"/>
    <path d="M 338.93543 114.713901 
L 336.740511 46.413223 
" clip-path="url(#p0e87b97267)" style="fill: none; stroke: #a9a9a9; stroke-opacity: 0.7; stroke-width: 0.666667"/>
    <path d="M 338.93543 114.713901 
L 314.180069 57.122778 
" clip-path="url(#p0e87b97267)" style="fill: none; stroke: #a9a9a9; stroke-opacity: 0.7; stroke-width: 0.666667"/>
    <path d="M 66.633918 348.077605 
L 46.413223 354.414135 
" clip-path="url(#p0e87b97267)" style="fill: none; stroke: #a9a9a9; stroke-opacity: 0.7; stroke-width: 2"/>
    <path d="M 66.633918 348.077605 
L 71.879574 378.351497 
" clip-path="url(#p0e87b97267)" style="fill: none; stroke: #a9a9a9; stroke-opacity: 0.7; stroke-width: 2"/>
    <path d="M 66.633918 348.077605 
L 50.668972 385.586777 
" clip-path="url(#p0e87b97267)" style="fill: none; stroke: #a9a9a9; stroke-opacity: 0.7; stroke-width: 2"/>
    <path d="M 314.180069 57.122778 
L 336.740511 46.413223 
" clip-path="url(#p0e87b97267)" style="fill: none; stroke: #a9a9a9; stroke-opacity: 0.7; stroke-width: 2"/>
    <path d="M 71.879574 378.351497 
L 46.413223 354.414135 
" clip-path="url(#p0e87b97267)" style="fill: none; stroke: #a9a9a9; stroke-opacity: 0.7; stroke-width: 2"/>
    <path d="M 71.879574 378.351497 
L 50.668972 385.586777 
" clip-path="url(#p0e87b97267)" style="fill: none; stroke: #a9a9a9; stroke-opacity: 0.7; stroke-width: 2"/>
    <path d="M 50.668972 385.586777 
L 46.413223 354.414135 
" clip-path="url(#p0e87b97267)" style="fill: none; stroke: #a9a9a9; stroke-opacity: 0.7; stroke-width: 2"/>
   </g>
   <g id="PathCollection_1">
    <defs>
     <path id="mb9f7826298" d="M 0 15.811388 
C 4.193229 15.811388 8.215279 14.145401 11.18034 11.18034 
C 14.145401 8.215279 15.811388 4.193229 15.811388 0 
C 15.811388 -4.193229 14.145401 -8.215279 11.18034 -11.18034 
C 8.215279 -14.145401 4.193229 -15.811388 0 -15.811388 
C -4.193229 -15.811388 -8.215279 -14.145401 -11.18034 -11.18034 
C -14.145401 -8.215279 -15.811388 -4.193229 -15.811388 0 
C -15.811388 4.193229 -14.145401 8.215279 -11.18034 11.18034 
C -8.215279 14.145401 -4.193229 15.811388 0 15.811388 
z
" style="stroke: #000000; stroke-opacity: 0.7"/>
    </defs>
    <g clip-path="url(#p0e87b97267)">
     <use xlink:href="#mb9f7826298" x="338.93543" y="114.713901" style="fill: #ffffff; fill-opacity: 0.7; stroke: #000000; stroke-opacity: 0.7"/>
     <use xlink:href="#mb9f7826298" x="333.278184" y="184.152158" style="fill: #ffffff; fill-opacity: 0.7; stroke: #000000; stroke-opacity: 0.7"/>
     <use xlink:href="#mb9f7826298" x="66.633918" y="348.077605" style="fill: #ffffff; fill-opacity: 0.7; stroke: #000000; stroke-opacity: 0.7"/>
     <use xlink:href="#mb9f7826298" x="314.180069" y="57.122778" style="fill: #ffffff; fill-opacity: 0.7; stroke: #000000; stroke-opacity: 0.7"/>
     <use xlink:href="#mb9f7826298" x="71.879574" y="378.351497" style="fill: #ffffff; fill-opacity: 0.7; stroke: #000000; stroke-opacity: 0.7"/>
     <use xlink:href="#mb9f7826298" x="385.586777" y="137.859284" style="fill: #ffffff; fill-opacity: 0.7; stroke: #000000; stroke-opacity: 0.7"/>
     <use xlink:href="#mb9f7826298" x="336.740511" y="46.413223" style="fill: #ffffff; fill-opacity: 0.7; stroke: #000000; stroke-opacity: 0.7"/>
     <use xlink:href="#mb9f7826298" x="50.668972" y="385.586777" style="fill: #ffffff; fill-opacity: 0.7; stroke: #000000; stroke-opacity: 0.7"/>
     <use xlink:href="#mb9f7826298" x="46.413223" y="354.414135" style="fill: #ffffff; fill-opacity: 0.7; stroke: #000000; stroke-opacity: 0.7"/>
    </g>
   </g>
   <g id="text_1">
    <g clip-path="url(#p0e87b97267)">
     <!-- メロス -->
     <g transform="translate(316.43543 119.518588) scale(0.15 -0.15)">
      <defs>
       <path id="MS-Gothic-30e1" d="M 850 425 
Q 2375 1250 3050 2300 
Q 2350 2725 1825 2950 
L 2125 3500 
Q 2675 3250 3375 2850 
Q 3725 3575 3975 4800 
L 4575 4600 
Q 4750 4550 4550 4450 
Q 4225 3200 3875 2525 
Q 4475 2125 4850 1825 
L 4525 1250 
Q 4025 1675 3575 1975 
Q 2650 725 1375 -50 
L 850 425 
z
" transform="scale(0.015625)"/>
       <path id="MS-Gothic-30ed" d="M 5200 425 
L 4625 425 
L 4625 700 
L 1850 700 
L 1850 300 
L 1275 300 
L 1275 4200 
L 5200 4200 
L 5200 425 
z
M 1850 3650 
L 1850 1250 
L 4625 1250 
L 4625 3650 
L 1850 3650 
z
" transform="scale(0.015625)"/>
       <path id="MS-Gothic-30b9" d="M 3600 2275 
Q 4675 1450 5725 375 
L 5225 -50 
Q 4175 1050 3200 1800 
Q 2225 750 975 -75 
L 500 350 
Q 3150 2075 3900 3800 
L 1175 3625 
L 1100 4225 
L 4000 4350 
L 4300 4425 
L 4700 4025 
Q 4875 3850 4600 3800 
Q 4125 2975 3600 2275 
z
" transform="scale(0.015625)"/>
      </defs>
      <use xlink:href="#MS-Gothic-30e1"/>
      <use xlink:href="#MS-Gothic-30ed" x="100"/>
      <use xlink:href="#MS-Gothic-30b9" x="200"/>
     </g>
    </g>
   </g>
   <g id="text_2">
    <g clip-path="url(#p0e87b97267)">
     <!-- 政治 -->
     <g transform="translate(318.278184 188.986143) scale(0.15 -0.15)">
      <defs>
       <path id="MS-Gothic-653f" d="M 4500 1450 
Q 4875 2125 4950 3400 
L 3850 3400 
Q 3975 2175 4500 1450 
z
M 5800 -475 
Q 5025 -50 4500 650 
Q 3750 -150 2625 -525 
L 2375 25 
Q 3425 275 4200 1050 
Q 3700 1850 3575 2700 
Q 3375 2125 3025 1725 
L 2700 2150 
L 2925 2450 
L 2225 2450 
L 2225 825 
L 3125 1050 
L 3200 575 
L 650 -100 
Q 625 -275 525 -175 
L 375 450 
L 700 500 
L 700 3275 
L 1175 3275 
Q 1375 3250 1200 3125 
L 1200 600 
L 1725 700 
L 1725 4200 
L 475 4200 
L 475 4675 
L 3200 4675 
L 3200 4200 
L 2225 4200 
L 2225 2925 
L 2950 2925 
L 2950 2500 
Q 3525 3500 3675 5150 
L 4250 5000 
Q 4350 4900 4175 4875 
Q 4075 4225 3950 3875 
L 6000 3875 
L 6000 3400 
L 5450 3400 
Q 5400 2025 4825 1050 
Q 5225 525 6075 75 
L 5800 -475 
z
" transform="scale(0.015625)"/>
       <path id="MS-Gothic-6cbb" d="M 4675 4300 
Q 5450 3600 6050 2675 
L 5550 2350 
Q 5425 2600 5250 2825 
Q 3750 2700 2300 2575 
Q 2175 2400 2150 2500 
L 1950 3125 
Q 2325 3125 2700 3150 
Q 3250 4200 3575 5200 
L 4075 5000 
Q 4250 4925 4050 4850 
Q 3725 4025 3225 3150 
Q 4075 3200 4925 3250 
Q 4625 3650 4300 3975 
L 4675 4300 
z
M 375 0 
Q 1025 725 1550 1750 
L 2000 1450 
Q 1500 475 925 -325 
Q 950 -575 800 -450 
L 375 0 
z
M 4950 -175 
L 3000 -175 
L 3000 -475 
L 2500 -475 
L 2500 2100 
L 5450 2100 
L 5450 -400 
L 4950 -400 
L 4950 -175 
z
M 4950 1625 
L 3000 1625 
L 3000 300 
L 4950 300 
L 4950 1625 
z
M 1375 2400 
Q 1000 2775 500 3050 
L 850 3500 
Q 1350 3250 1750 2875 
L 1375 2400 
z
M 1775 3750 
Q 1325 4200 850 4400 
L 1150 4875 
Q 1550 4700 2100 4250 
L 1775 3750 
z
" transform="scale(0.015625)"/>
      </defs>
      <use xlink:href="#MS-Gothic-653f"/>
      <use xlink:href="#MS-Gothic-6cbb" x="100"/>
     </g>
    </g>
   </g>
   <g id="text_3">
    <g clip-path="url(#p0e87b97267)">
     <!-- 暴虐 -->
     <g transform="translate(51.633918 352.882293) scale(0.15 -0.15)">
      <defs>
       <path id="MS-Gothic-66b4" d="M 5950 375 
Q 5375 475 4700 850 
L 4425 450 
Q 5175 150 5500 -25 
L 5200 -500 
L 5050 -400 
Q 4000 175 3475 375 
L 3475 -175 
Q 3475 -550 3200 -550 
L 2600 -550 
L 2525 -150 
L 2950 -150 
Q 3050 -150 3050 -50 
L 3050 325 
L 1375 -375 
Q 1350 -550 1250 -450 
L 1050 75 
L 2125 400 
L 1825 850 
Q 1225 500 450 325 
L 300 850 
Q 1675 1150 2250 1775 
L 400 1775 
L 400 2175 
L 2275 2175 
L 2275 2525 
L 975 2525 
L 975 2925 
L 2275 2925 
L 2275 3325 
L 1750 3325 
L 1175 3325 
L 1175 5025 
L 5200 5025 
L 5200 3325 
L 4125 3325 
L 4125 2925 
L 5425 2925 
L 5425 2525 
L 4125 2525 
L 4125 2175 
L 5975 2175 
L 5975 1775 
L 4200 1775 
Q 5025 1050 6175 925 
L 5950 375 
z
M 4275 1125 
Q 3925 1375 3650 1775 
L 2775 1775 
Q 2650 1475 2200 1150 
L 2625 600 
L 3050 750 
L 3050 1500 
L 3450 1500 
Q 3650 1475 3475 1350 
L 3475 775 
L 3950 625 
L 4275 1125 
z
M 1675 4325 
L 4700 4325 
L 4700 4725 
L 1675 4725 
L 1675 4325 
z
M 1675 3625 
L 4700 3625 
L 4700 4025 
L 1675 4025 
L 1675 3625 
z
M 2700 2925 
L 3700 2925 
L 3700 3325 
L 2700 3325 
L 2700 2925 
z
M 2700 2175 
L 3700 2175 
L 3700 2525 
L 2700 2525 
L 2700 2175 
z
" transform="scale(0.015625)"/>
       <path id="MS-Gothic-8650" d="M 2475 575 
L 2475 150 
L 5675 150 
L 5675 -250 
L 2475 -250 
L 2475 -550 
L 2050 -550 
L 2050 1775 
L 5525 1775 
L 5525 1375 
L 2475 1375 
L 2475 975 
L 5350 975 
L 5350 575 
L 2475 575 
z
M 2850 2750 
L 1825 2725 
L 1825 3150 
L 2850 3175 
L 2850 3625 
L 1550 3625 
L 1550 1600 
Q 1550 325 725 -500 
L 300 -100 
Q 1050 625 1050 1775 
L 1050 4025 
L 2800 4025 
L 2800 5200 
L 3275 5200 
Q 3475 5175 3300 5050 
L 3300 4825 
L 5100 4825 
L 5100 4425 
L 3300 4425 
L 3300 4025 
L 5800 4025 
L 5675 3100 
L 5125 3100 
L 5200 3625 
L 3275 3625 
L 3275 3200 
L 4725 3250 
L 4725 2825 
L 3275 2775 
L 3275 2675 
Q 3275 2500 3450 2500 
L 4725 2500 
Q 4925 2500 4950 2625 
L 5000 2900 
L 5525 2775 
L 5450 2450 
Q 5375 2100 5025 2100 
L 3275 2100 
Q 2850 2100 2850 2525 
L 2850 2750 
z
" transform="scale(0.015625)"/>
      </defs>
      <use xlink:href="#MS-Gothic-66b4"/>
      <use xlink:href="#MS-Gothic-8650" x="100"/>
     </g>
    </g>
   </g>
   <g id="text_4">
    <g clip-path="url(#p0e87b97267)">
     <!-- 村 -->
     <g transform="translate(306.680069 61.927466) scale(0.15 -0.15)">
      <defs>
       <path id="MS-Gothic-6751" d="M 325 1500 
Q 1275 2400 1550 3550 
L 500 3550 
L 500 4025 
L 1550 4025 
L 1550 5150 
L 2025 5150 
Q 2225 5125 2050 5000 
L 2050 4025 
L 3025 4025 
L 3025 3550 
L 2050 3550 
L 2050 2800 
Q 2600 2375 3025 1825 
L 2675 1400 
Q 2375 1825 2050 2150 
L 2050 -475 
L 1550 -475 
L 1550 2200 
Q 1175 1525 675 1050 
L 325 1500 
z
M 5200 5150 
Q 5400 5125 5225 5000 
L 5225 3900 
L 6025 3900 
L 6025 3425 
L 5225 3425 
L 5225 -25 
Q 5225 -425 4825 -425 
L 4225 -425 
L 4150 50 
L 4625 50 
Q 4725 50 4725 150 
L 4725 3425 
L 3250 3425 
L 3250 3900 
L 4725 3900 
L 4725 5150 
L 5200 5150 
z
M 3600 2600 
Q 4025 2175 4300 1575 
L 3825 1275 
Q 3600 1800 3175 2325 
L 3600 2600 
z
" transform="scale(0.015625)"/>
      </defs>
      <use xlink:href="#MS-Gothic-6751"/>
     </g>
    </g>
   </g>
   <g id="text_5">
    <g clip-path="url(#p0e87b97267)">
     <!-- 決意 -->
     <g transform="translate(56.879574 383.185481) scale(0.15 -0.15)">
      <defs>
       <path id="MS-Gothic-6c7a" d="M 1825 1625 
Q 1500 725 925 -250 
Q 1000 -425 875 -400 
L 300 0 
Q 950 925 1325 1875 
L 1825 1625 
z
M 3800 3625 
L 3800 2450 
L 4725 2450 
L 4725 3625 
L 3800 3625 
z
M 5875 -475 
Q 4275 325 3700 1625 
Q 3525 350 1725 -600 
L 1450 0 
Q 3075 800 3225 1975 
L 1750 1975 
L 1750 2450 
L 3300 2450 
L 3300 3625 
L 2275 3625 
L 2275 4100 
L 3300 4100 
L 3300 5125 
L 3775 5125 
Q 3975 5100 3800 4975 
L 3800 4100 
L 5225 4100 
L 5225 2450 
L 5950 2450 
L 5950 1975 
L 4050 1975 
Q 4600 825 6100 175 
L 5875 -475 
z
M 1300 2325 
Q 875 2775 425 3000 
L 800 3525 
Q 1250 3350 1725 2850 
L 1300 2325 
z
M 1650 3725 
Q 1200 4200 775 4450 
L 1175 4925 
Q 1650 4700 2075 4250 
L 1650 3725 
z
" transform="scale(0.015625)"/>
       <path id="MS-Gothic-610f" d="M 3200 300 
Q 3100 475 2775 850 
L 3200 1100 
Q 3575 775 3675 575 
L 3200 300 
z
M 1425 700 
Q 1575 575 1350 550 
Q 1175 100 800 -350 
L 300 -25 
Q 650 375 925 950 
L 1425 700 
z
M 3350 4725 
L 5350 4725 
L 5350 4325 
L 4475 4325 
L 4200 3750 
L 6000 3750 
L 6000 3350 
L 250 3350 
L 250 3750 
L 1925 3750 
L 1725 4325 
L 875 4325 
L 875 4725 
L 2850 4725 
L 2850 5175 
L 3325 5175 
Q 3525 5150 3350 5025 
L 3350 4725 
z
M 2425 3750 
L 3675 3750 
L 3950 4325 
L 2225 4325 
L 2425 3750 
z
M 5525 -225 
Q 5225 250 4750 725 
L 5200 1025 
Q 5700 600 6025 75 
L 5525 -225 
z
M 2300 1000 
Q 2500 975 2325 850 
L 2325 250 
Q 2325 50 2500 50 
L 4100 50 
Q 4225 50 4225 150 
L 4250 525 
L 4750 425 
L 4725 50 
Q 4700 -425 4250 -425 
L 2275 -425 
Q 1825 -425 1825 0 
L 1825 1000 
L 2300 1000 
z
M 4475 1900 
L 1675 1900 
L 1675 1575 
L 4475 1575 
L 4475 1900 
z
M 4900 1175 
L 1250 1175 
L 1250 3025 
L 4900 3025 
L 4900 1175 
z
M 4475 2300 
L 4475 2625 
L 1675 2625 
L 1675 2300 
L 4475 2300 
z
" transform="scale(0.015625)"/>
      </defs>
      <use xlink:href="#MS-Gothic-6c7a"/>
      <use xlink:href="#MS-Gothic-610f" x="100"/>
     </g>
    </g>
   </g>
   <g id="text_6">
    <g clip-path="url(#p0e87b97267)">
     <!-- 激怒 -->
     <g transform="translate(370.586777 142.693268) scale(0.15 -0.15)">
      <defs>
       <path id="MS-Gothic-6fc0" d="M 2775 900 
Q 2450 -175 1550 -525 
L 1325 -50 
Q 2300 375 2400 1450 
L 2425 1725 
L 1575 1725 
L 1575 2125 
L 2650 2125 
L 2650 2600 
L 2250 2600 
L 1875 2600 
L 1875 4600 
L 2525 4600 
L 2625 5250 
L 3175 5175 
Q 3275 5075 3100 5050 
L 3000 4600 
L 3775 4600 
L 3775 2775 
Q 4300 3750 4475 5100 
L 4950 5000 
Q 5025 4900 4900 4875 
Q 4825 4425 4700 3975 
L 6050 3975 
L 6050 3500 
L 5725 3500 
Q 5675 2350 5175 1175 
Q 5575 525 6125 200 
L 5850 -350 
Q 5325 50 4925 675 
Q 4575 75 3950 -500 
L 3775 -75 
Q 3650 -450 3300 -450 
L 2875 -450 
L 2800 25 
L 3175 25 
Q 3400 25 3425 900 
L 2775 900 
z
M 3925 1300 
L 3800 125 
Q 4350 575 4675 1200 
Q 4400 2100 4325 2875 
Q 4200 2575 4025 2300 
L 3775 2700 
L 3775 2600 
L 3075 2600 
L 3075 2125 
L 4075 2125 
L 4075 1725 
L 2900 1725 
L 2850 1300 
L 3925 1300 
z
M 4675 3500 
Q 4725 2525 4925 1800 
Q 5250 2850 5275 3500 
L 4675 3500 
z
M 3350 4200 
L 2300 4200 
L 2300 3800 
L 3350 3800 
L 3350 4200 
z
M 3350 3400 
L 2300 3400 
L 2300 3000 
L 3350 3000 
L 3350 3400 
z
M 850 -300 
Q 900 -450 775 -425 
L 275 -50 
Q 675 550 1150 1800 
L 1575 1475 
Q 1175 250 850 -300 
z
M 1175 2400 
Q 775 2800 375 3025 
L 700 3525 
Q 1200 3300 1525 2925 
L 1175 2400 
z
M 1375 3950 
Q 1000 4325 550 4550 
L 875 5025 
Q 1350 4850 1725 4450 
L 1375 3950 
z
" transform="scale(0.015625)"/>
       <path id="MS-Gothic-6012" d="M 4000 4300 
Q 4150 3700 4450 3250 
Q 4900 3775 5075 4300 
L 4000 4300 
z
M 4100 2875 
Q 3675 3600 3550 4300 
L 3300 4300 
L 3300 4775 
L 5275 4775 
L 5375 4900 
L 5775 4600 
Q 5925 4500 5725 4475 
Q 5375 3600 4775 2875 
Q 5375 2400 6025 2200 
L 5750 1650 
Q 4900 2025 4450 2500 
Q 3975 2000 3275 1625 
L 2975 2150 
Q 3675 2450 4100 2875 
z
M 700 2950 
Q 1100 3725 1200 4000 
L 525 4000 
L 525 4475 
L 1400 4475 
L 1675 5250 
L 2150 5075 
Q 2250 4975 2075 4950 
L 1900 4475 
L 2750 4475 
L 2825 4550 
L 3250 4250 
L 3175 4175 
Q 3000 3375 2575 2775 
Q 2825 2625 3100 2450 
L 2775 1950 
Q 2475 2225 2275 2350 
Q 1650 1725 775 1425 
L 550 1900 
Q 1425 2150 1875 2625 
Q 1625 2800 1250 2975 
L 1125 2725 
L 700 2950 
z
M 4875 1475 
Q 5600 900 5975 175 
L 5450 -225 
Q 5025 600 4425 1150 
L 4875 1475 
z
M 1575 925 
Q 1425 425 1150 -300 
L 575 -100 
Q 875 525 1050 1250 
L 1600 1075 
Q 1800 1000 1575 925 
z
M 3275 475 
Q 3175 750 2825 1225 
L 3300 1500 
Q 3550 1200 3800 800 
L 3275 475 
z
M 2475 -450 
Q 2025 -450 2025 -25 
L 2025 1500 
L 2500 1500 
Q 2700 1475 2525 1350 
L 2525 225 
Q 2525 25 2700 25 
L 3875 25 
Q 4150 25 4200 250 
L 4275 550 
L 4775 400 
Q 4625 -450 4000 -450 
L 2475 -450 
z
M 1450 3375 
Q 1825 3200 2200 3000 
Q 2450 3450 2625 4000 
L 1725 4000 
L 1450 3375 
z
" transform="scale(0.015625)"/>
      </defs>
      <use xlink:href="#MS-Gothic-6fc0"/>
      <use xlink:href="#MS-Gothic-6012" x="100"/>
     </g>
    </g>
   </g>
   <g id="text_7">
    <g clip-path="url(#p0e87b97267)">
     <!-- 牧人 -->
     <g transform="translate(321.740511 51.217911) scale(0.15 -0.15)">
      <defs>
       <path id="MS-Gothic-7267" d="M 5825 -375 
Q 5025 -75 4275 675 
Q 3575 -75 2575 -500 
L 2300 50 
Q 3250 375 3950 1100 
Q 3525 1875 3325 2750 
Q 3200 2475 2875 2100 
L 2550 2550 
Q 3375 3425 3675 5100 
L 4250 5000 
Q 4350 4900 4175 4875 
Q 3975 4050 3850 3775 
L 5900 3775 
L 5900 3300 
L 5325 3300 
Q 5200 2050 4600 1100 
Q 4925 650 6075 200 
L 5825 -375 
z
M 4275 1525 
Q 4675 2250 4800 3300 
L 3675 3300 
Q 3950 2100 4275 1525 
z
M 475 1750 
L 1525 1850 
L 1525 3350 
L 1125 3350 
Q 1000 2875 775 2450 
L 400 2775 
Q 750 3575 900 4525 
L 1400 4375 
Q 1500 4275 1325 4250 
L 1225 3825 
L 1525 3825 
L 1525 5150 
L 2000 5150 
Q 2200 5125 2025 5000 
L 2025 3825 
L 2750 3825 
L 2750 3350 
L 2025 3350 
L 2025 1925 
L 2750 2050 
L 2850 1625 
L 2025 1450 
L 2025 -525 
L 1525 -525 
L 1525 1350 
L 725 1225 
Q 700 1050 600 1150 
L 475 1750 
z
" transform="scale(0.015625)"/>
       <path id="MS-Gothic-4eba" d="M 2850 4925 
L 3400 4925 
Q 3650 4875 3425 4725 
L 3425 3700 
Q 3600 1300 5975 275 
L 5675 -350 
Q 3950 400 3225 2375 
Q 2700 500 850 -350 
L 475 200 
Q 2850 1125 2850 3625 
L 2850 4925 
z
" transform="scale(0.015625)"/>
      </defs>
      <use xlink:href="#MS-Gothic-7267"/>
      <use xlink:href="#MS-Gothic-4eba" x="100"/>
     </g>
    </g>
   </g>
   <g id="text_8">
    <g clip-path="url(#p0e87b97267)">
     <!-- 王 -->
     <g transform="translate(43.168972 390.391464) scale(0.15 -0.15)">
      <defs>
       <path id="MS-Gothic-738b" d="M 3450 4150 
L 3450 2600 
L 5225 2600 
L 5225 2125 
L 3450 2125 
L 3450 375 
L 5850 375 
L 5850 -175 
L 500 -175 
L 500 375 
L 2875 375 
L 2875 2125 
L 1100 2125 
L 1100 2600 
L 2875 2600 
L 2875 4150 
L 850 4150 
L 850 4700 
L 5525 4700 
L 5525 4150 
L 3450 4150 
z
" transform="scale(0.015625)"/>
      </defs>
      <use xlink:href="#MS-Gothic-738b"/>
     </g>
    </g>
   </g>
   <g id="text_9">
    <g clip-path="url(#p0e87b97267)">
     <!-- 邪智 -->
     <g transform="translate(31.413223 359.248119) scale(0.15 -0.15)">
      <defs>
       <path id="MS-Gothic-90aa" d="M 1175 4400 
L 600 4400 
L 600 4875 
L 3525 4875 
L 3525 4400 
L 2925 4400 
L 2925 3025 
L 3600 3025 
L 3600 2550 
L 2925 2550 
L 2925 -25 
Q 2925 -450 2500 -450 
L 1900 -450 
L 1800 100 
L 2350 100 
Q 2425 100 2425 175 
L 2425 1875 
Q 1625 900 475 275 
L 325 825 
Q 1600 1500 2375 2550 
L 425 2550 
L 425 3025 
L 1175 3025 
L 1175 4400 
z
M 5475 1000 
Q 5625 1925 4650 2750 
L 5175 4400 
L 4325 4400 
L 4325 -500 
L 3825 -500 
L 3825 4875 
L 5425 4875 
L 5475 4975 
L 5825 4700 
Q 6000 4625 5800 4550 
L 5150 2850 
Q 6225 1850 5975 725 
Q 5875 275 5400 275 
L 4900 275 
L 4800 750 
L 5200 750 
Q 5425 750 5475 1000 
z
M 1675 4400 
L 1675 3025 
L 2425 3025 
L 2425 4400 
L 1675 4400 
z
" transform="scale(0.015625)"/>
       <path id="MS-Gothic-667a" d="M 1650 4625 
L 3175 4625 
L 3175 4225 
L 2350 4225 
L 2300 3675 
L 3425 3675 
L 3425 3275 
L 2275 3275 
L 2225 3100 
Q 2900 2875 3400 2575 
L 3150 2125 
Q 2725 2425 2075 2750 
Q 1650 2100 625 1825 
L 450 2300 
Q 1675 2650 1800 3275 
L 525 3275 
L 525 3675 
L 1850 3675 
L 1900 4225 
L 1450 4225 
Q 1275 3950 1000 3700 
L 650 3975 
Q 1175 4525 1425 5225 
L 1900 5125 
Q 2000 5025 1825 5000 
L 1650 4625 
z
M 4075 4325 
L 4075 3000 
L 5300 3000 
L 5300 4325 
L 4075 4325 
z
M 1600 2050 
L 5075 2050 
L 5075 -425 
L 4575 -425 
L 4575 -250 
L 2100 -250 
L 2100 -550 
L 1600 -550 
L 1600 2050 
z
M 2100 1650 
L 2100 1100 
L 4575 1100 
L 4575 1650 
L 2100 1650 
z
M 2100 700 
L 2100 150 
L 4575 150 
L 4575 700 
L 2100 700 
z
M 3650 4725 
L 5725 4725 
L 5725 2400 
L 5300 2400 
L 5300 2600 
L 4075 2600 
L 4075 2325 
L 3650 2325 
L 3650 4725 
z
" transform="scale(0.015625)"/>
      </defs>
      <use xlink:href="#MS-Gothic-90aa"/>
      <use xlink:href="#MS-Gothic-667a" x="100"/>
     </g>
    </g>
   </g>
  </g>
 </g>
 <defs>
  <clipPath id="p0e87b97267">
   <rect x="10.8" y="10.8" width="410.4" height="410.4"/>
  </clipPath>
 </defs>
</svg>
