<?xml version="1.0" encoding="utf-8" standalone="no"?>
<!DOCTYPE svg PUBLIC "-//W3C//DTD SVG 1.1//EN"
  "http://www.w3.org/Graphics/SVG/1.1/DTD/svg11.dtd">
<svg xmlns:xlink="http://www.w3.org/1999/xlink" width="432pt" height="432pt" viewBox="0 0 432 432" xmlns="http://www.w3.org/2000/svg" version="1.1">
 <metadata>
  <rdf:RDF xmlns:dc="http://purl.org/dc/elements/1.1/" xmlns:cc="http://creativecommons.org/ns#" xmlns:rdf="http://www.w3.org/1999/02/22-rdf-syntax-ns#">
   <cc:Work>
    <dc:type rdf:resource="http://purl.org/dc/dcmitype/StillImage"/>
    <dc:date>2024-02-14T19:04:58.581505</dc:date>
    <dc:format>image/svg+xml</dc:format>
    <dc:creator>
     <cc:Agent>
      <dc:title>Matplotlib v3.7.2, https://matplotlib.org/</dc:title>
     </cc:Agent>
    </dc:creator>
   </cc:Work>
  </rdf:RDF>
 </metadata>
 <defs>
  <style type="text/css">*{stroke-linejoin: round; stroke-linecap: butt}</style>
 </defs>
 <g id="figure_1">
  <g id="patch_1">
   <path d="M 0 432 
L 432 432 
L 432 0 
L 0 0 
z
" style="fill: #ffffff"/>
  </g>
  <g id="axes_1">
   <g id="LineCollection_1">
    <path d="M 46.413223 311.068146 
L 259.16736 333.664347 
" clip-path="url(#p6c17ee3b3b)" style="fill: none; stroke: #a9a9a9; stroke-opacity: 0.7; stroke-width: 0.258065"/>
    <path d="M 46.413223 311.068146 
L 211.666327 236.799426 
" clip-path="url(#p6c17ee3b3b)" style="fill: none; stroke: #a9a9a9; stroke-opacity: 0.7; stroke-width: 0.4"/>
    <path d="M 46.413223 311.068146 
L 159.17043 385.586777 
" clip-path="url(#p6c17ee3b3b)" style="fill: none; stroke: #a9a9a9; stroke-opacity: 0.7; stroke-width: 0.533333"/>
    <path d="M 259.16736 333.664347 
L 211.666327 236.799426 
" clip-path="url(#p6c17ee3b3b)" style="fill: none; stroke: #a9a9a9; stroke-opacity: 0.7; stroke-width: 0.444444"/>
    <path d="M 259.16736 333.664347 
L 159.17043 385.586777 
" clip-path="url(#p6c17ee3b3b)" style="fill: none; stroke: #a9a9a9; stroke-opacity: 0.7; stroke-width: 0.490566"/>
    <path d="M 259.16736 333.664347 
L 385.586777 384.94367 
" clip-path="url(#p6c17ee3b3b)" style="fill: none; stroke: #a9a9a9; stroke-opacity: 0.7; stroke-width: 0.32"/>
    <path d="M 159.17043 385.586777 
L 211.666327 236.799426 
" clip-path="url(#p6c17ee3b3b)" style="fill: none; stroke: #a9a9a9; stroke-opacity: 0.7; stroke-width: 0.391304"/>
    <path d="M 159.17043 385.586777 
L 385.586777 384.94367 
" clip-path="url(#p6c17ee3b3b)" style="fill: none; stroke: #a9a9a9; stroke-opacity: 0.7; stroke-width: 0.266667"/>
    <path d="M 226.624536 46.413223 
L 211.666327 236.799426 
" clip-path="url(#p6c17ee3b3b)" style="fill: none; stroke: #a9a9a9; stroke-opacity: 0.7; stroke-width: 0.333333"/>
    <path d="M 385.586777 384.94367 
L 211.666327 236.799426 
" clip-path="url(#p6c17ee3b3b)" style="fill: none; stroke: #a9a9a9; stroke-opacity: 0.7; stroke-width: 0.25"/>
   </g>
   <g id="PathCollection_1">
    <defs>
     <path id="m143463bf9f" d="M 0 15.811388 
C 4.193229 15.811388 8.215279 14.145401 11.18034 11.18034 
C 14.145401 8.215279 15.811388 4.193229 15.811388 0 
C 15.811388 -4.193229 14.145401 -8.215279 11.18034 -11.18034 
C 8.215279 -14.145401 4.193229 -15.811388 0 -15.811388 
C -4.193229 -15.811388 -8.215279 -14.145401 -11.18034 -11.18034 
C -14.145401 -8.215279 -15.811388 -4.193229 -15.811388 0 
C -15.811388 4.193229 -14.145401 8.215279 -11.18034 11.18034 
C -8.215279 14.145401 -4.193229 15.811388 0 15.811388 
z
" style="stroke: #000000; stroke-opacity: 0.7"/>
    </defs>
    <g clip-path="url(#p6c17ee3b3b)">
     <use xlink:href="#m143463bf9f" x="46.413223" y="311.068146" style="fill: #ffffff; fill-opacity: 0.7; stroke: #000000; stroke-opacity: 0.7"/>
     <use xlink:href="#m143463bf9f" x="259.16736" y="333.664347" style="fill: #ffffff; fill-opacity: 0.7; stroke: #000000; stroke-opacity: 0.7"/>
     <use xlink:href="#m143463bf9f" x="159.17043" y="385.586777" style="fill: #ffffff; fill-opacity: 0.7; stroke: #000000; stroke-opacity: 0.7"/>
     <use xlink:href="#m143463bf9f" x="226.624536" y="46.413223" style="fill: #ffffff; fill-opacity: 0.7; stroke: #000000; stroke-opacity: 0.7"/>
     <use xlink:href="#m143463bf9f" x="385.586777" y="384.94367" style="fill: #ffffff; fill-opacity: 0.7; stroke: #000000; stroke-opacity: 0.7"/>
     <use xlink:href="#m143463bf9f" x="211.666327" y="236.799426" style="fill: #ffffff; fill-opacity: 0.7; stroke: #000000; stroke-opacity: 0.7"/>
    </g>
   </g>
   <g id="text_1">
    <g clip-path="url(#p6c17ee3b3b)">
     <!-- セリヌンティウス -->
     <g transform="translate(-13.586777 315.872833) scale(0.15 -0.15)">
      <defs>
       <path id="MS-Gothic-30bb" d="M 5550 3075 
Q 4800 1975 4275 1275 
L 3800 1600 
Q 4350 2275 4825 3000 
L 2750 2625 
L 2750 775 
Q 2750 425 3100 425 
L 5400 425 
L 5325 -125 
L 2950 -125 
Q 2175 -125 2175 675 
L 2175 2525 
L 675 2225 
L 475 2800 
L 2175 3100 
L 2175 4750 
L 2700 4750 
Q 2925 4700 2750 4550 
L 2750 3175 
L 5000 3550 
L 5200 3675 
L 5650 3225 
Q 5750 3100 5550 3075 
z
" transform="scale(0.015625)"/>
       <path id="MS-Gothic-30ea" d="M 4750 2200 
Q 4750 325 3000 -500 
L 2500 -75 
Q 4150 675 4175 2225 
L 4175 4725 
L 4700 4725 
Q 4950 4675 4750 4525 
L 4750 2200 
z
M 2175 1650 
L 1600 1650 
L 1600 4475 
L 2150 4475 
Q 2400 4450 2175 4275 
L 2175 1650 
z
" transform="scale(0.015625)"/>
       <path id="MS-Gothic-30cc" d="M 675 450 
Q 2175 1025 3050 1900 
Q 2400 2375 1750 2725 
L 2050 3175 
Q 2775 2750 3425 2325 
Q 3950 3025 4275 3900 
L 1200 3800 
L 1125 4325 
L 4500 4425 
L 4650 4500 
L 5050 4100 
Q 5175 3950 4925 3900 
Q 4525 2925 3875 2025 
Q 4650 1425 5350 750 
L 4900 300 
Q 4250 975 3475 1550 
Q 2550 650 1125 -25 
L 675 450 
z
" transform="scale(0.015625)"/>
       <path id="MS-Gothic-30f3" d="M 5950 2900 
Q 4625 150 1500 0 
Q 1375 -325 1250 -50 
L 1050 600 
Q 4300 675 5425 3275 
L 5950 2900 
z
M 2425 2900 
Q 1750 3525 1150 3925 
L 1575 4450 
Q 2100 4125 2900 3375 
L 2425 2900 
z
" transform="scale(0.015625)"/>
       <path id="MS-Gothic-30c6" d="M 3125 2500 
L 625 2500 
L 625 3050 
L 5750 3050 
L 5750 2500 
L 3700 2500 
L 3700 2175 
Q 3700 600 2575 -425 
L 2075 -50 
Q 3125 775 3125 2175 
L 3125 2500 
z
M 1525 4025 
L 1525 4575 
L 4850 4575 
L 4850 4025 
L 1525 4025 
z
" transform="scale(0.015625)"/>
       <path id="MS-Gothic-30a3" d="M 3600 -500 
L 3100 -500 
L 3100 1825 
Q 2550 1400 1450 850 
L 1100 1275 
Q 3475 2425 4350 3800 
L 4775 3475 
Q 4925 3350 4675 3300 
Q 4250 2775 3600 2225 
L 3600 -500 
z
" transform="scale(0.015625)"/>
       <path id="MS-Gothic-30a6" d="M 5600 3525 
Q 5600 800 2975 -500 
L 2500 -25 
Q 4925 1075 4950 3275 
L 1475 3275 
L 1525 1800 
L 950 1800 
L 875 3825 
L 2850 3825 
L 2850 5075 
L 3350 5075 
Q 3650 5050 3425 4875 
L 3425 3825 
L 5300 3825 
L 5600 3525 
z
" transform="scale(0.015625)"/>
       <path id="MS-Gothic-30b9" d="M 3600 2275 
Q 4675 1450 5725 375 
L 5225 -50 
Q 4175 1050 3200 1800 
Q 2225 750 975 -75 
L 500 350 
Q 3150 2075 3900 3800 
L 1175 3625 
L 1100 4225 
L 4000 4350 
L 4300 4425 
L 4700 4025 
Q 4875 3850 4600 3800 
Q 4125 2975 3600 2275 
z
" transform="scale(0.015625)"/>
      </defs>
      <use xlink:href="#MS-Gothic-30bb"/>
      <use xlink:href="#MS-Gothic-30ea" x="100"/>
      <use xlink:href="#MS-Gothic-30cc" x="200"/>
      <use xlink:href="#MS-Gothic-30f3" x="300"/>
      <use xlink:href="#MS-Gothic-30c6" x="400"/>
      <use xlink:href="#MS-Gothic-30a3" x="500"/>
      <use xlink:href="#MS-Gothic-30a6" x="600"/>
      <use xlink:href="#MS-Gothic-30b9" x="700"/>
     </g>
    </g>
   </g>
   <g id="text_2">
    <g clip-path="url(#p6c17ee3b3b)">
     <!-- ディオニス -->
     <g transform="translate(221.66736 338.615519) scale(0.15 -0.15)">
      <defs>
       <path id="MS-Gothic-30c7" d="M 3125 2500 
L 625 2500 
L 625 3050 
L 5750 3050 
L 5750 2500 
L 3700 2500 
L 3700 2175 
Q 3700 600 2575 -425 
L 2075 -50 
Q 3125 775 3125 2175 
L 3125 2500 
z
M 1525 4025 
L 1525 4575 
L 4600 4575 
L 4600 4025 
L 1525 4025 
z
M 4925 5050 
Q 5250 4725 5625 4175 
L 5275 3925 
Q 4925 4425 4575 4825 
L 4925 5050 
z
M 5525 5375 
Q 5850 5025 6225 4525 
L 5875 4275 
Q 5475 4825 5175 5125 
L 5525 5375 
z
" transform="scale(0.015625)"/>
       <path id="MS-Gothic-30aa" d="M 375 650 
Q 1975 1675 2875 3100 
L 525 3100 
L 525 3650 
L 3175 3650 
L 3175 5025 
L 3700 5025 
Q 3925 4975 3750 4825 
L 3750 3650 
L 5850 3650 
L 5850 3100 
L 3750 3100 
L 3750 175 
Q 3750 -425 3175 -425 
L 2475 -425 
L 2375 125 
L 2875 125 
Q 3175 175 3175 450 
L 3175 2550 
Q 2225 1150 875 200 
L 375 650 
z
" transform="scale(0.015625)"/>
       <path id="MS-Gothic-30cb" d="M 675 1250 
L 5850 1250 
L 5850 700 
L 675 700 
L 675 1250 
z
M 1300 3975 
L 4975 3975 
L 4975 3425 
L 1300 3425 
L 1300 3975 
z
" transform="scale(0.015625)"/>
      </defs>
      <use xlink:href="#MS-Gothic-30c7"/>
      <use xlink:href="#MS-Gothic-30a3" x="100"/>
      <use xlink:href="#MS-Gothic-30aa" x="200"/>
      <use xlink:href="#MS-Gothic-30cb" x="300"/>
      <use xlink:href="#MS-Gothic-30b9" x="400"/>
     </g>
    </g>
   </g>
   <g id="text_3">
    <g clip-path="url(#p6c17ee3b3b)">
     <!-- メロス -->
     <g transform="translate(136.67043 390.391464) scale(0.15 -0.15)">
      <defs>
       <path id="MS-Gothic-30e1" d="M 850 425 
Q 2375 1250 3050 2300 
Q 2350 2725 1825 2950 
L 2125 3500 
Q 2675 3250 3375 2850 
Q 3725 3575 3975 4800 
L 4575 4600 
Q 4750 4550 4550 4450 
Q 4225 3200 3875 2525 
Q 4475 2125 4850 1825 
L 4525 1250 
Q 4025 1675 3575 1975 
Q 2650 725 1375 -50 
L 850 425 
z
" transform="scale(0.015625)"/>
       <path id="MS-Gothic-30ed" d="M 5200 425 
L 4625 425 
L 4625 700 
L 1850 700 
L 1850 300 
L 1275 300 
L 1275 4200 
L 5200 4200 
L 5200 425 
z
M 1850 3650 
L 1850 1250 
L 4625 1250 
L 4625 3650 
L 1850 3650 
z
" transform="scale(0.015625)"/>
      </defs>
      <use xlink:href="#MS-Gothic-30e1"/>
      <use xlink:href="#MS-Gothic-30ed" x="100"/>
      <use xlink:href="#MS-Gothic-30b9" x="200"/>
     </g>
    </g>
   </g>
   <g id="text_4">
    <g clip-path="url(#p6c17ee3b3b)">
     <!-- 村人 -->
     <g transform="translate(211.624536 51.217911) scale(0.15 -0.15)">
      <defs>
       <path id="MS-Gothic-6751" d="M 325 1500 
Q 1275 2400 1550 3550 
L 500 3550 
L 500 4025 
L 1550 4025 
L 1550 5150 
L 2025 5150 
Q 2225 5125 2050 5000 
L 2050 4025 
L 3025 4025 
L 3025 3550 
L 2050 3550 
L 2050 2800 
Q 2600 2375 3025 1825 
L 2675 1400 
Q 2375 1825 2050 2150 
L 2050 -475 
L 1550 -475 
L 1550 2200 
Q 1175 1525 675 1050 
L 325 1500 
z
M 5200 5150 
Q 5400 5125 5225 5000 
L 5225 3900 
L 6025 3900 
L 6025 3425 
L 5225 3425 
L 5225 -25 
Q 5225 -425 4825 -425 
L 4225 -425 
L 4150 50 
L 4625 50 
Q 4725 50 4725 150 
L 4725 3425 
L 3250 3425 
L 3250 3900 
L 4725 3900 
L 4725 5150 
L 5200 5150 
z
M 3600 2600 
Q 4025 2175 4300 1575 
L 3825 1275 
Q 3600 1800 3175 2325 
L 3600 2600 
z
" transform="scale(0.015625)"/>
       <path id="MS-Gothic-4eba" d="M 2850 4925 
L 3400 4925 
Q 3650 4875 3425 4725 
L 3425 3700 
Q 3600 1300 5975 275 
L 5675 -350 
Q 3950 400 3225 2375 
Q 2700 500 850 -350 
L 475 200 
Q 2850 1125 2850 3625 
L 2850 4925 
z
" transform="scale(0.015625)"/>
      </defs>
      <use xlink:href="#MS-Gothic-6751"/>
      <use xlink:href="#MS-Gothic-4eba" x="100"/>
     </g>
    </g>
   </g>
   <g id="text_5">
    <g clip-path="url(#p6c17ee3b3b)">
     <!-- 男 -->
     <g transform="translate(378.086777 389.748358) scale(0.15 -0.15)">
      <defs>
       <path id="MS-Gothic-7537" d="M 5075 1400 
L 3325 1400 
Q 3075 -300 750 -650 
L 550 -100 
Q 2475 50 2825 1400 
L 825 1400 
L 825 1800 
L 2900 1800 
Q 2925 2100 2950 2425 
L 1625 2425 
L 1625 2200 
L 1125 2200 
L 1125 4975 
L 5300 4975 
L 5300 2275 
L 4800 2275 
L 4800 2425 
L 3450 2425 
Q 3425 2100 3400 1800 
L 5675 1800 
L 5400 25 
Q 5325 -475 4575 -475 
L 3875 -475 
L 3875 0 
L 4550 0 
Q 4875 0 4900 225 
L 5075 1400 
z
M 4800 4575 
L 3475 4575 
L 3475 3925 
L 4800 3925 
L 4800 4575 
z
M 2975 4575 
L 1625 4575 
L 1625 3925 
L 2975 3925 
L 2975 4575 
z
M 2975 3525 
L 1625 3525 
L 1625 2825 
L 2975 2825 
L 2975 3525 
z
M 3475 3525 
L 3475 2825 
L 4800 2825 
L 4800 3525 
L 3475 3525 
z
" transform="scale(0.015625)"/>
      </defs>
      <use xlink:href="#MS-Gothic-7537"/>
     </g>
    </g>
   </g>
   <g id="text_6">
    <g clip-path="url(#p6c17ee3b3b)">
     <!-- 花嫁 -->
     <g transform="translate(196.666327 241.604114) scale(0.15 -0.15)">
      <defs>
       <path id="MS-Gothic-82b1" d="M 325 1375 
Q 1425 2100 1925 3350 
L 2375 3125 
Q 2500 3025 2325 3000 
Q 2175 2675 2025 2425 
L 2025 -475 
L 1525 -475 
L 1525 1725 
Q 1125 1225 625 900 
L 325 1375 
z
M 5700 2575 
Q 5800 2425 5600 2450 
Q 4525 1800 3700 1600 
L 3700 275 
Q 3700 175 3800 175 
L 5125 175 
Q 5300 175 5325 325 
L 5400 875 
L 5950 725 
L 5850 125 
Q 5775 -300 5325 -300 
L 3675 -300 
Q 3200 -300 3200 175 
L 3200 3300 
L 3700 3300 
Q 3850 3275 3700 3150 
L 3700 2075 
Q 4650 2450 5325 2975 
L 5700 2575 
z
M 2025 3925 
L 450 3925 
L 450 4400 
L 2025 4400 
L 2025 5125 
L 2500 5125 
Q 2700 5100 2525 4975 
L 2525 4400 
L 3775 4400 
L 3775 5125 
L 4250 5125 
Q 4450 5100 4275 4975 
L 4275 4400 
L 5850 4400 
L 5850 3925 
L 4275 3925 
L 4275 3425 
L 3775 3425 
L 3775 3925 
L 2525 3925 
L 2525 3425 
L 2025 3425 
L 2025 3925 
z
" transform="scale(0.015625)"/>
       <path id="MS-Gothic-5ac1" d="M 4375 1000 
Q 3750 250 2600 -225 
L 2425 225 
Q 3600 700 4300 1525 
Q 4300 1700 4200 1875 
Q 3425 1150 2675 850 
L 2500 1275 
Q 3325 1575 4000 2225 
Q 3975 2300 3850 2450 
Q 3500 2175 2650 1825 
L 2475 2225 
Q 3400 2500 3950 3025 
L 3000 3025 
L 3000 3325 
L 2500 3325 
L 2500 4375 
L 4000 4375 
L 4000 5150 
L 4475 5150 
Q 4675 5125 4500 5000 
L 4500 4375 
L 5950 4375 
L 5950 3325 
L 5475 3325 
L 5475 3025 
L 4500 3025 
Q 4400 2900 4125 2675 
Q 4375 2450 4525 2075 
L 5350 2850 
L 5700 2525 
Q 5775 2425 5575 2425 
L 4750 1800 
Q 5350 950 6125 450 
L 5850 -75 
Q 5225 475 4750 1200 
Q 4875 750 4775 25 
Q 4700 -500 4225 -500 
L 3750 -500 
L 3700 -25 
L 4075 -25 
Q 4375 -25 4375 450 
L 4375 1000 
z
M 2300 3625 
Q 2275 2075 2025 1125 
Q 2250 975 2425 800 
L 2175 400 
Q 2000 575 1850 700 
Q 1475 -25 625 -425 
L 375 0 
Q 1175 350 1475 950 
Q 1200 1150 950 1300 
L 850 1050 
L 425 1250 
Q 800 2250 950 3450 
L 450 3450 
L 450 3925 
L 1000 3925 
Q 1075 4600 1100 5075 
L 1525 5025 
Q 1725 5000 1550 4875 
Q 1525 4525 1450 3925 
L 1975 3925 
L 2050 4000 
L 2375 3750 
Q 2425 3700 2300 3625 
z
M 3000 3975 
L 3000 3425 
L 5450 3425 
L 5450 3975 
L 3000 3975 
z
M 1625 1375 
Q 1825 2275 1850 3450 
L 1400 3450 
Q 1275 2475 1075 1675 
Q 1350 1550 1625 1375 
z
" transform="scale(0.015625)"/>
      </defs>
      <use xlink:href="#MS-Gothic-82b1"/>
      <use xlink:href="#MS-Gothic-5ac1" x="100"/>
     </g>
    </g>
   </g>
  </g>
 </g>
 <defs>
  <clipPath id="p6c17ee3b3b">
   <rect x="10.8" y="10.8" width="410.4" height="410.4"/>
  </clipPath>
 </defs>
</svg>
